<svg width="18" height="20" viewBox="0 0 18 20" fill="none" xmlns="http://www.w3.org/2000/svg">
<path d="M15.0341 10.6358C15.045 9.86923 15.2702 9.1176 15.6888 8.45085C16.1075 7.7841 16.7058 7.22391 17.4283 6.82239C16.9694 6.22985 16.3639 5.74221 15.66 5.39821C14.956 5.0542 14.1731 4.86331 13.3733 4.84069C11.6672 4.6788 10.0132 5.76357 9.14378 5.76357C8.25756 5.76357 6.91898 4.85676 5.47754 4.88357C4.54519 4.9108 3.63653 5.15589 2.84011 5.59496C2.04369 6.03403 1.38667 6.6521 0.933061 7.38896C-1.03183 10.4643 0.433805 14.984 2.31604 17.4699C3.25777 18.6871 4.35838 20.0468 5.79851 19.9986C7.20777 19.9458 7.7341 19.1863 9.43518 19.1863C11.1205 19.1863 11.6143 19.9986 13.0836 19.968C14.5958 19.9458 15.5486 18.7453 16.4573 17.5165C17.1339 16.6492 17.6546 15.6906 18 14.6762C17.1215 14.3403 16.3717 13.7781 15.8443 13.0596C15.3169 12.3411 15.0351 11.4981 15.0341 10.6358Z" fill="white"/>
<path d="M12.2594 3.20594C13.0839 2.31119 13.4902 1.16113 13.3918 0C12.1321 0.119599 10.9685 0.66383 10.1329 1.52425C9.72432 1.94459 9.41139 2.43361 9.212 2.96334C9.01262 3.49307 8.93068 4.05313 8.97088 4.6115C9.60094 4.61736 10.2243 4.49391 10.7939 4.25045C11.3635 4.00698 11.8646 3.64985 12.2594 3.20594Z" fill="white"/>
</svg>
