<svg width="48" height="48" viewBox="0 0 48 48" fill="none" xmlns="http://www.w3.org/2000/svg">
<rect width="48" height="48" rx="12" fill="#2A3C24" fill-opacity="0.12"/>
<path fill-rule="evenodd" clip-rule="evenodd" d="M19.3078 12.75C18.5068 12.7498 17.9572 12.7496 17.4687 12.8835C16.4431 13.1646 15.5851 13.868 15.1083 14.8186C14.8812 15.2713 14.7736 15.8103 14.6167 16.5958L13.9971 19.6939C13.7655 20.8519 14.0829 21.9718 14.7507 22.8115L14.7507 25.5565C14.7507 27.3942 14.7507 28.8499 14.9039 29.9891C15.0615 31.1615 15.3936 32.1104 16.142 32.8588C16.8903 33.6072 17.8393 33.9393 19.0117 34.0969C20.1509 34.2501 21.6066 34.2501 23.4443 34.25H24.5572C26.3949 34.2501 27.8506 34.2501 28.9898 34.0969C30.1622 33.9393 31.1111 33.6072 31.8595 32.8588C32.6079 32.1104 32.94 31.1615 33.0976 29.9891C33.2508 28.8499 33.2508 27.3942 33.2507 25.5565V22.8116C33.9186 21.9718 34.236 20.8519 34.0044 19.6939L33.3848 16.5958C33.2279 15.8103 33.1203 15.2713 32.8932 14.8186C32.4164 13.868 31.5584 13.1646 30.5328 12.8835C30.0443 12.7496 29.4947 12.7498 28.6937 12.75H19.3078ZM30.2692 24.25C30.7981 24.25 31.2979 24.1436 31.7507 23.9524V25.5C31.7507 27.4069 31.7492 28.7615 31.611 29.7892C31.4757 30.7953 31.222 31.3749 30.7988 31.7981C30.3756 32.2214 29.796 32.475 28.7899 32.6103C28.3444 32.6702 27.8375 32.7044 27.2507 32.724V29.9678C27.2508 29.528 27.2508 29.1487 27.2226 28.8374C27.1927 28.5082 27.1267 28.1823 26.9493 27.875C26.7518 27.533 26.4678 27.249 26.1257 27.0515C25.8185 26.8741 25.4926 26.8081 25.1634 26.7782C24.8521 26.75 24.4728 26.75 24.033 26.75H23.9685C23.5287 26.75 23.1494 26.75 22.8381 26.7782C22.5089 26.8081 22.183 26.8741 21.8757 27.0515C21.5337 27.249 21.2497 27.533 21.0522 27.875C20.8748 28.1823 20.8088 28.5082 20.7789 28.8374C20.7507 29.1487 20.7507 29.528 20.7507 29.9678L20.7507 32.724C20.164 32.7044 19.6571 32.6702 19.2116 32.6103C18.2055 32.475 17.6259 32.2214 17.2026 31.7981C16.7794 31.3749 16.5258 30.7953 16.3905 29.7892C16.2523 28.7615 16.2507 27.4069 16.2507 25.5V23.9524C16.7036 24.1436 17.2034 24.25 17.7323 24.25C19.0062 24.25 20.1452 23.6217 20.8388 22.6459C21.5483 23.614 22.6939 24.25 24.0005 24.25C25.3073 24.25 26.453 23.6139 27.1625 22.6456C27.8561 23.6215 28.9952 24.25 30.2692 24.25ZM22.2507 32.7481C22.6391 32.75 23.0548 32.75 23.5007 32.75H24.5007C24.9466 32.75 25.3624 32.75 25.7507 32.7481V30C25.7507 29.5189 25.75 29.2083 25.7287 28.9728C25.7083 28.7477 25.6739 28.6659 25.6503 28.625C25.5844 28.511 25.4898 28.4164 25.3757 28.3505C25.3349 28.3269 25.2531 28.2925 25.028 28.2721C24.7925 28.2508 24.4819 28.25 24.0007 28.25C23.5196 28.25 23.2089 28.2508 22.9735 28.2721C22.7483 28.2925 22.6666 28.3269 22.6257 28.3505C22.5117 28.4164 22.4171 28.511 22.3512 28.625C22.3276 28.6659 22.2932 28.7476 22.2728 28.9728C22.2515 29.2083 22.2507 29.5189 22.2507 30V32.7481ZM20.6718 14.25H19.4185C18.464 14.25 18.1334 14.2566 17.8653 14.3301C17.2499 14.4988 16.7351 14.9208 16.449 15.4912C16.3244 15.7397 16.2531 16.0625 16.0659 16.9985L15.468 19.9881C15.1822 21.4169 16.2751 22.75 17.7323 22.75C18.9186 22.75 19.9119 21.8511 20.03 20.6707L20.0985 19.9848L20.1025 19.9428L20.6718 14.25ZM21.592 20.1251L22.1795 14.25H25.8218L26.406 20.092C26.5483 21.5152 25.4308 22.75 24.0005 22.75C22.5814 22.75 21.4701 21.5342 21.592 20.1251ZM30.1362 14.3301C29.8681 14.2566 29.5375 14.25 28.583 14.25H27.3295L27.9715 20.6707C28.0896 21.8511 29.0829 22.75 30.2692 22.75C31.7264 22.75 32.8193 21.4169 32.5335 19.9881L31.9356 16.9985C31.7484 16.0625 31.6771 15.7397 31.5525 15.4912C31.2664 14.9208 30.7516 14.4988 30.1362 14.3301Z" fill="#2A3C24"/>
</svg>
